<?xml version="1.0" encoding="UTF-8" standalone="no"?>
<!-- Created with Inkscape (http://www.inkscape.org/) -->

<svg
   width="71.23616mm"
   height="71.236168mm"
   viewBox="0 0 71.23616 71.236168"
   version="1.1"
   id="svg1"
   xmlns:inkscape="http://www.inkscape.org/namespaces/inkscape"
   xmlns:sodipodi="http://sodipodi.sourceforge.net/DTD/sodipodi-0.dtd"
   xmlns:xlink="http://www.w3.org/1999/xlink"
   xmlns="http://www.w3.org/2000/svg"
   xmlns:svg="http://www.w3.org/2000/svg">
  <sodipodi:namedview
     id="namedview1"
     pagecolor="#ffffff"
     bordercolor="#000000"
     borderopacity="0.25"
     inkscape:showpageshadow="2"
     inkscape:pageopacity="0.0"
     inkscape:pagecheckerboard="0"
     inkscape:deskcolor="#d1d1d1"
     inkscape:document-units="mm" />
  <defs
     id="defs1">
    <linearGradient
       id="linearGradient4"
       inkscape:collect="always">
      <stop
         style="stop-color:#ffc800;stop-opacity:1;"
         offset="0"
         id="stop5" />
      <stop
         style="stop-color:#f68900;stop-opacity:0.66453671;"
         offset="1"
         id="stop6" />
    </linearGradient>
    <linearGradient
       id="linearGradient1"
       inkscape:collect="always">
      <stop
         style="stop-color:#0824ff;stop-opacity:0.7635783;"
         offset="0"
         id="stop1" />
      <stop
         style="stop-color:#2d40ff;stop-opacity:0.65175718;"
         offset="0.67849463"
         id="stop3" />
      <stop
         style="stop-color:#d47b1c;stop-opacity:1;"
         offset="0.91989249"
         id="stop4" />
      <stop
         style="stop-color:#ef9643;stop-opacity:0.87220448;"
         offset="1"
         id="stop2" />
    </linearGradient>
    <radialGradient
       inkscape:collect="always"
       xlink:href="#linearGradient1"
       id="radialGradient2"
       cx="48.276409"
       cy="59.309319"
       fx="48.276409"
       fy="59.309319"
       r="35.61808"
       gradientUnits="userSpaceOnUse"
       gradientTransform="matrix(4.4194968e-8,0.92307721,-1,-3.1442713e-6,95.840677,-9.3099046)" />
    <radialGradient
       inkscape:collect="always"
       xlink:href="#linearGradient4"
       id="radialGradient6"
       cx="51.053448"
       cy="66.105293"
       fx="51.053448"
       fy="66.105293"
       r="19.726549"
       gradientTransform="matrix(1,0,0,1.3801248,-17.717713,-56.910551)"
       gradientUnits="userSpaceOnUse" />
  </defs>
  <path
     id="path1"
     style="fill:url(#radialGradient2);stroke-width:20"
     d="M 71.23616,35.618079 A 35.61808,35.61808 0 0 1 35.61808,71.236161 35.61808,35.61808 0 0 1 -8.1001565e-7,35.618079 35.61808,35.61808 0 0 1 35.61808,-6.0693219e-7 35.61808,35.61808 0 0 1 71.23616,35.618079 Z" />
  <path
     d="m 34.645118,48.616894 -2.3876,-2.5908 17.3736,-15.697199 C 27.511399,-6.6655246 28.735374,21.46683 15.846677,30.235023 23.741016,-15.864561 59.590573,18.784342 52.018718,32.919695 Z m -5.66206,12.66906 C 19.324952,58.992863 9.3892982,47.055195 15.47466,39.096213 12.804107,50.350238 31.444718,62.464921 31.444718,55.982894 V 20.168895 c 0,-0.575733 0.169333,-1.032933 0.508,-1.3716 0.372533,-0.372533 0.846667,-0.5588 1.4224,-0.5588 0.575733,0 1.032933,0.186267 1.3716,0.5588 0.372533,0.338667 0.5588,0.795867 0.5588,1.3716 v 35.813999 c 0,6.800406 -5.15934,5.579216 -6.32246,5.30306 z m 23.18806,-3.62666 c -0.440267,0.372533 -0.897467,0.524933 -1.3716,0.4572 -0.474133,-0.03387 -0.880533,-0.270933 -1.2192,-0.7112 l -11.3284,-13.919199 2.7432,-2.4384 11.43,14.071599 c 0.338667,0.4064 0.491067,0.846667 0.4572,1.3208 -0.03387,0.440267 -0.270933,0.846667 -0.7112,1.2192 z"
     id="text1"
     style="font-size:50.8px;font-family:Comfortaa;-inkscape-font-specification:Comfortaa;fill:url(#radialGradient6);stroke-width:20"
     aria-label="k"
     sodipodi:nodetypes="ccccccscsssscssssccccccs" />
</svg>
