<?xml version="1.0" encoding="UTF-8" standalone="no"?>
<!-- Created with Inkscape (http://www.inkscape.org/) -->

<svg
   width="119.0625mm"
   height="119.06249mm"
   viewBox="0 0 119.0625 119.06249"
   version="1.1"
   id="svg1"
   xmlns="http://www.w3.org/2000/svg"
   xmlns:svg="http://www.w3.org/2000/svg">
  <defs
     id="defs1" />
  <g
     id="layer1">
    <circle
       style="fill:#2c5aa0;fill-opacity:1;stroke-width:0.160235"
       id="path4"
       cx="65"
       cy="60"
       r="50" />
    <path
       d="m 9.2325397,46.62181 q -0.716456,3.461244 -1.937925,5.543296 -1.221467,2.082052 -2.690269,2.67999 -0.992086,0.403872 -2.089549,-0.245243 -1.097455,-0.649096 -1.68739302,-2.128605 -1.521113,-3.814807 -0.245786,-9.44242 1.26954802,-5.642108 4.25868702,-6.858967 1.082275,-0.440586 2.165764,0.736842 0.352574,0.395976 0.713332,0.249113 1.030739,-0.419606 1.38933,0.479706 0.179295,0.449656 0.362773,1.285378 1.0104443,4.562203 1.7102713,6.317305 1.399656,3.510203 2.862622,3.723894 0.705719,0.117345 0.908146,0.625014 0.179296,0.449657 -0.195427,1.124861 -0.368946,0.689692 -0.884315,0.899495 -0.992086,0.40387 -2.24937,-0.871406 -1.257285,-1.275277 -2.3908913,-4.118253 z m -4.042164,-7.846358 q -1.700717,0.69235 -2.521097,5.20748 -0.826168,4.500611 0.116578,6.864928 0.665125,1.668069 1.644327,1.269443 1.417263,-0.576957 2.645706,-4.819854 1.228442,-4.242896 0.152672,-6.940823 -0.827069,-2.074212 -2.038186,-1.581174 z m 12.0171893,1.143584 q 0.30158,-4.051035 1.762116,-7.073371 1.454753,-3.036854 3.297192,-3.786898 1.017853,-0.414361 2.148693,0.356023 1.130853,0.77039 1.738143,2.293414 1.798729,4.511044 0.349883,9.703499 -1.441715,5.172714 -4.804514,6.541687 -0.914777,0.372399 -1.907618,0.1359 -0.98573,-0.256231 -1.411377,-1.060807 -0.323364,-0.660755 -0.752732,-0.87373 -0.802721,-0.398173 -1.086122,-1.108918 -0.52632,-1.319958 -1.605652,-5.904699 l -2.131584,-9.214232 q -1.058025,-4.643979 -1.159449,-5.79972 -0.08853,-1.160968 0.159188,-1.666439 0.247715,-0.505471 0.814618,-0.736253 0.901907,-0.36716 1.60173,1.38793 0.665123,1.668066 0.870253,5.07446 0.197527,3.274646 2.117232,11.732154 z m 1.616754,4.956045 q 1.230998,1.134239 2.184431,0.746102 1.468811,-0.597943 2.561441,-2.627534 1.086829,-2.044101 1.283168,-5.00699 0.203433,-2.982659 -0.479042,-4.694243 -0.306536,-0.768766 -0.771126,-1.220301 -0.464576,-0.451529 -0.838213,-0.299424 -1.790909,0.729067 -3.061945,5.09046 -1.263955,4.341643 -0.878714,8.01193 z M 29.903,21.768992 q -0.270576,0.110148 -0.672569,-0.484878 -0.132492,-0.182092 -0.321018,-0.391952 -0.723812,-0.801217 -1.001429,-1.497457 -0.231344,-0.580186 0.137073,-1.421412 0.375531,-0.860967 1.122817,-1.165182 0.373656,-0.152113 0.970515,-0.0074 0.591063,0.130286 0.71252,0.434889 0.190864,0.478667 0.325675,1.755678 0.147689,1.271771 -0.386122,1.961149 -0.526709,0.669626 -0.887462,0.816487 z m 4.772574,16.889181 q 0.439561,1.10238 1.25958,2.370205 0.155631,0.240123 0.225037,0.414187 0.104109,0.261096 -0.159125,0.840324 -0.257454,0.593724 -0.734172,0.787792 -1.249764,0.508771 -2.279269,-2.073126 -1.064202,-2.668922 -2.386917,-8.840525 -0.468942,-2.152565 -0.654022,-2.616727 -0.364374,-0.913817 -0.322519,-1.672671 0.03607,-0.77336 0.577205,-0.993652 0.657091,-0.267497 1.175321,-0.05698 0.525332,0.190768 0.698844,0.625919 0.173511,0.43515 0.276531,1.219325 0.560593,4.222687 0.988019,5.970684 0.427426,1.747964 1.335469,4.025249 z M 40.534238,23.00473 q 1.280795,-0.656282 2.389641,-1.293134 1.101739,-0.61711 1.874785,-0.931811 0.979207,-0.398629 1.317855,-0.300451 0.338661,0.09816 0.541092,0.60584 0.46848,1.174904 -0.946953,1.869126 -1.816154,0.891083 -3.295488,1.763057 -1.479321,0.871981 -1.544543,1.083981 -0.05812,0.192258 0.603467,3.766895 0.655811,3.56013 1.049102,4.546467 0.636205,1.595542 1.223842,1.980125 0.581862,0.370075 1.329148,0.06586 1.10803,-0.451071 2.333211,-3.12471 0.453634,-1.078226 0.865927,-1.246067 0.55401,-0.225534 0.82006,0.441694 0.41643,1.044367 -0.709344,3.4415 -1.118666,2.3774 -2.986866,3.13793 -3.117985,1.269311 -4.766346,-2.864623 -0.595722,-1.494015 -1.20079,-4.889354 -0.612182,-3.375565 -0.860882,-3.99928 -0.08676,-0.217581 -0.39598,-0.0917 l -1.287897,0.676033 q -1.649171,0.671367 -2.23911,-0.808143 -0.335456,-0.84129 0.424706,-1.150746 l 2.65414,-1.080482 q 0.270569,-0.110147 0.36684,-0.469666 0.09625,-0.359525 -0.12897,-2.088652 -0.231014,-1.743661 -0.534863,-3.407067 -0.298065,-1.648901 0.603814,-2.016049 0.554019,-0.225538 1.036753,0.08373 0.482732,0.309262 0.633108,0.686392 0.08097,0.203065 0.363236,2.263036 z m 17.012095,10.928707 q -1.765138,0.718576 -3.513342,-0.323142 -1.748199,-1.041709 -2.633107,-3.260974 -1.492193,-3.742279 -0.709156,-8.27592 0.790148,-4.553393 3.908131,-5.822702 2.061466,-0.839208 4.048405,0.425638 1.999815,1.259604 2.983044,3.725448 1.503763,3.771301 0.133596,8.071892 -1.35727,4.295352 -4.217571,5.45976 z m -4.029207,-4.884376 q 0.584158,1.465013 1.495447,2.173036 0.924178,0.702786 1.826085,0.335627 1.91974,-0.781513 2.909628,-3.932592 0.984105,-3.165585 -0.172636,-6.066583 -0.711395,-1.78411 -1.898242,-2.582275 -1.179737,-0.817919 -2.429511,-0.309145 -2.074361,0.844458 -2.423762,4.32489 -0.342293,3.460648 0.692991,6.057042 z M 71.24491,28.289417 q 0.0544,0.399339 -0.2467,0.808521 -0.30108,0.409178 -0.70051,0.571777 -1.31418,0.534999 -2.17596,-1.626252 -0.41064,-1.029853 -1.71949,-6.077524 -0.80044,-3.096623 -1.407737,-4.619648 -0.104102,-0.261083 -0.812975,-0.461437 -0.715972,-0.180599 -0.872133,-0.572235 -0.248698,-0.623712 0.299598,-1.689892 0.418651,-0.827956 0.282768,-1.581894 -0.123015,-0.759174 -0.421365,-2.07078 -1.13585,-4.7640499 -0.536724,-7.3176919 0.612025,-2.558883 2.776568,-3.44005401 1.14671,-0.466815 2.29833,0.09279 1.14583,0.5451 1.66636,1.85054101 0.42221,1.058865 0.50915,2.591398 0.094,1.512795 -0.47286,1.743579 -0.42518,0.173091 -0.61605,-0.305589 l -0.47083,-1.443678 q -1.11625,-2.799464 -2.50775,-2.232997 -1.507443,0.613671 -1.169286,4.353678 0.332386,3.7255309 1.165236,5.8142459 0.26606,0.667227 1.0391,0.352525 3.36279,-1.368968 3.94392,-1.639215 0.594,-0.275489 0.83112,0.319182 0.23712,0.594701 -0.29272,1.181307 -0.52276,0.566859 -2.61475,1.705112 -1.78145,0.978103 -1.96842,1.222815 1.28829,5.747263 2.97135,9.96822 0.50318,1.261938 0.84917,1.829194 0.31576,0.528986 0.3736,0.67403 z"
       id="text4"
       style="font-size:30.1115px;font-family:'Segoe Print';-inkscape-font-specification:'Segoe Print';fill:#f9f9f9;fill-opacity:1;stroke-width:0.47214"
       aria-label="abitof" />
    <path
       style="font-size:83.2033px;font-family:Calibri;-inkscape-font-specification:Calibri;fill:#ffffff;stroke-width:0.55543"
       d="m 76.227102,76.475517 q 0,3.697021 -1.381305,6.581511 -1.340678,2.884489 -3.778274,4.91582 -2.396971,1.990704 -5.687726,3.006369 -3.250129,1.015665 -7.028404,1.015665 -2.64073,0 -4.91582,-0.446892 -2.234464,-0.446893 -4.022034,-1.096919 -1.746945,-0.650026 -2.965743,-1.340678 -1.178172,-0.690653 -1.665691,-1.178172 -0.446893,-0.487519 -0.690653,-1.218798 -0.203133,-0.771906 -0.203133,-2.031331 0,-0.893785 0.08125,-1.462558 0.08125,-0.609399 0.243759,-0.975038 0.162507,-0.36564 0.406266,-0.48752 0.24376,-0.162506 0.568773,-0.162506 0.568773,0 1.584438,0.690652 1.056292,0.690653 2.681356,1.503185 1.625065,0.812532 3.900155,1.543811 2.315717,0.690652 5.322086,0.690652 2.27509,0 4.143914,-0.609399 1.909451,-0.609399 3.250129,-1.706317 1.381305,-1.137546 2.112584,-2.76261 0.731279,-1.625065 0.731279,-3.697022 0,-2.234463 -1.015665,-3.818901 -1.015665,-1.584438 -2.681357,-2.76261 -1.665691,-1.218798 -3.818901,-2.193837 -2.112584,-1.015665 -4.347047,-2.03133 -2.234464,-1.056292 -4.347048,-2.315717 -2.112584,-1.259425 -3.778275,-2.965743 -1.665691,-1.706318 -2.721983,-3.981408 -1.015665,-2.315717 -1.015665,-5.525219 0,-3.290756 1.178172,-5.850232 1.218798,-2.600103 3.331382,-4.347047 2.15321,-1.746945 5.078326,-2.64073 2.965743,-0.934412 6.378378,-0.934412 1.746945,0 3.493889,0.325013 1.787571,0.284386 3.331382,0.812532 1.584438,0.487519 2.803236,1.137545 1.218799,0.609399 1.584438,1.015665 0.406266,0.36564 0.528146,0.609399 0.12188,0.203133 0.203133,0.568773 0.08125,0.325013 0.12188,0.812532 0.04063,0.48752 0.04063,1.259425 0,0.731279 -0.08125,1.300052 -0.04063,0.568772 -0.162506,0.975038 -0.12188,0.36564 -0.36564,0.568773 -0.203133,0.162506 -0.487519,0.162506 -0.446893,0 -1.421931,-0.568772 -0.934412,-0.568773 -2.315717,-1.259425 -1.381305,-0.731279 -3.290756,-1.300052 -1.868824,-0.609399 -4.225167,-0.609399 -2.193837,0 -3.818902,0.609399 -1.625064,0.568773 -2.681356,1.543812 -1.056292,0.975038 -1.584438,2.315716 -0.528146,1.340679 -0.528146,2.843863 0,2.193837 1.015665,3.778275 1.015666,1.584438 2.681357,2.803236 1.706317,1.218799 3.859528,2.234464 2.15321,1.015665 4.387674,2.071957 2.234463,1.015665 4.387674,2.27509 2.15321,1.218799 3.818901,2.925116 1.706318,1.665691 2.721983,3.981408 1.056292,2.275091 1.056292,5.40334 z"
       id="text89"
       transform="scale(1.0822926,0.92396456)"
       aria-label="S" />
    <path
       style="font-size:34.4489px;font-family:'MS Gothic';-inkscape-font-specification:'MS Gothic';fill:#cccccc;stroke-width:0.511039"
       d="m 75.653089,109.1332 q -0.403698,2.96045 -2.018491,4.57525 -1.749358,1.74935 -4.440678,1.74935 -2.960452,0 -4.70981,-1.74935 -2.556754,-2.55676 -2.556754,-7.40113 0,-4.97895 2.287622,-7.266569 2.01849,-2.01849 4.844376,-2.01849 2.287622,0 4.171546,1.614792 2.422189,2.018487 2.287623,7.670267 H 64.887808 q 0,4.44067 1.614792,5.65177 0.941962,0.94196 2.69132,0.94196 1.480226,0 2.422188,-0.94196 0.807396,-0.8074 0.941962,-2.82589 z m -3.229585,-4.97894 q 0.134566,-2.69132 -1.211094,-3.90241 -1.211094,-1.076533 -2.422188,-0.941967 -1.34566,0.134566 -2.556754,1.345657 -1.076528,1.07653 -1.34566,3.49872 z m 17.359016,8.61222 q -2.153057,2.69132 -4.844377,2.69132 -2.01849,0 -3.902414,-1.88392 -2.287622,-2.28762 -2.287622,-7.67026 0,-4.44068 2.556754,-6.997435 1.883924,-1.883924 4.171546,-1.883924 2.422188,0 4.306113,2.01849 v -9.823318 h 2.69132 V 115.4578 H 89.78252 Z M 85.745539,99.444449 q -1.211094,0 -2.287622,1.076531 -1.749358,1.74936 -1.749358,5.65177 0,4.44068 1.480226,5.9209 0.941962,0.94197 2.422188,0.94197 1.211094,0 2.422188,-1.2111 1.749359,-1.74936 1.749359,-5.9209 0,-3.76785 -1.749359,-5.51721 -0.941962,-0.941961 -2.287622,-0.941961 z M 106.8724,112.76648 q -2.15305,2.69132 -5.5172,2.69132 -2.287626,0 -3.49872,-1.21109 -1.34566,-1.34566 -1.34566,-3.36415 V 97.022261 h 2.69132 v 13.187469 q 0,1.61479 0.67283,2.28762 0.67283,0.67283 2.28762,0.67283 1.88393,0 3.22959,-1.34566 1.48022,-1.48022 1.48022,-3.76785 V 97.022261 h 2.69132 V 115.4578 h -2.69132 z"
       id="text91"
       transform="scale(1.0496169,0.95272857)"
       aria-label="edu" />
  </g>
</svg>
