<?xml version="1.0" encoding="UTF-8" standalone="no"?>
<!-- Created with Inkscape (http://www.inkscape.org/) -->

<svg
   width="100mm"
   height="100mm"
   viewBox="0 0 100 100"
   version="1.1"
   id="svg1"
   inkscape:version="1.3.2 (091e20e, 2023-11-25, custom)"
   sodipodi:docname="abitofs.svg"
   xmlns:inkscape="http://www.inkscape.org/namespaces/inkscape"
   xmlns:sodipodi="http://sodipodi.sourceforge.net/DTD/sodipodi-0.dtd"
   xmlns:xlink="http://www.w3.org/1999/xlink"
   xmlns="http://www.w3.org/2000/svg"
   xmlns:svg="http://www.w3.org/2000/svg">
  <sodipodi:namedview
     id="namedview1"
     pagecolor="#ffffff"
     bordercolor="#000000"
     borderopacity="0.25"
     inkscape:showpageshadow="2"
     inkscape:pageopacity="0.0"
     inkscape:pagecheckerboard="0"
     inkscape:deskcolor="#d1d1d1"
     inkscape:document-units="mm"
     inkscape:zoom="1.4485269"
     inkscape:cx="152.91397"
     inkscape:cy="186.05108"
     inkscape:window-width="1920"
     inkscape:window-height="1009"
     inkscape:window-x="-8"
     inkscape:window-y="-8"
     inkscape:window-maximized="1"
     inkscape:current-layer="layer1" />
  <defs
     id="defs1">
    <linearGradient
       id="linearGradient33"
       inkscape:collect="always">
      <stop
         style="stop-color:#ff6600;stop-opacity:1;"
         offset="0"
         id="stop33" />
      <stop
         style="stop-color:#552200;stop-opacity:1"
         offset="1"
         id="stop34" />
    </linearGradient>
    <linearGradient
       inkscape:collect="always"
       xlink:href="#linearGradient33"
       id="linearGradient34"
       x1="72.845047"
       y1="137.94063"
       x2="118.50159"
       y2="130.06464"
       gradientUnits="userSpaceOnUse"
       gradientTransform="matrix(0.65290619,0,0,0.66515999,-12.817857,-31.271471)" />
  </defs>
  <g
     inkscape:label="Warstwa 1"
     inkscape:groupmode="layer"
     id="layer1">
    <path
       id="path27"
       style="fill:url(#linearGradient34);stroke-width:0.30108"
       inkscape:label="bg"
       d="M 98.157766,49.999998 A 49.078883,49.999999 0 0 1 49.078883,100 49.078883,49.999999 0 0 1 0,49.999998 49.078883,49.999999 0 0 1 49.078883,0 49.078883,49.999999 0 0 1 98.157766,49.999998 Z" />
    <path
       id="path12"
       style="display:inline;fill:#ff6600;stroke-width:0.310392"
       d="m 100,49.15889 c 0,7.01199 -1.394908,13.692072 -3.917437,19.767942 -2.522536,6.075877 -6.172699,11.547543 -10.683217,16.142714 -4.510517,4.595171 -9.967985,8.121517 -15.845321,10.88372 -6.623071,3.11268 -20.205518,4.651214 -19.40378,3.99096 C 78.939646,76.235307 57.547273,65.283072 47.820471,49.362941 39.355588,35.50823 31.398993,21.936307 51.62854,0.2167456 52.070543,-0.25781316 61.140433,1.0075927 67.192835,3.2236274 73.290997,5.4564166 80.2142,10.371281 84.893377,14.622807 89.653924,18.94827 93.560021,23.315073 96.082556,29.390946 98.605092,35.466818 100,42.1469 100,49.15889 Z"
       sodipodi:nodetypes="sssssssssss"
       inkscape:label="S" />
    <path
       style="font-size:35.2778px;font-family:'Trebuchet MS';-inkscape-font-specification:'Trebuchet MS';fill:#ffffff;fill-opacity:1;stroke-width:0.442874"
       d="m 27.880589,74.669876 q 2.294723,1.863684 2.294723,5.7055 0,2.059875 -1.460275,3.580252 -1.476327,1.504026 -3.65871,1.504026 -2.615662,0 -4.412921,-2.321438 -1.813307,-2.337782 -1.813307,-5.950728 0,-0.98089 0.417218,-2.223343 -4.172217,0 -4.172217,3.792768 0,2.909973 1.540513,4.479388 l -2.551467,1.307853 q -0.706075,-0.882793 -1.203531,-2.435867 -0.513498,-1.569424 -0.513498,-2.991715 0,-3.809121 1.700978,-5.525671 1.700978,-1.732912 5.407831,-1.732912 h 6.162043 q 2.26262,0 3.01683,-1.373242 h 1.524462 q 0,1.896388 -0.529549,2.844582 -0.529549,0.931842 -1.749123,1.340547 z m -6.466931,0.294269 q -0.320938,1.47133 -0.320938,2.059865 0,2.354133 1.18748,3.841816 1.18747,1.487681 2.808219,1.487681 2.67984,0 2.67984,-3.220584 0,-2.354133 -2.198434,-4.168778 z m 8.440715,-25.159803 v 6.833532 H 6.3455495 Q 6.1369306,52.272913 6.1369306,50.34383 q 0,-3.547548 1.5084199,-5.492975 1.4923686,-1.945436 4.2845475,-1.945436 1.636792,0 2.984737,1.242462 1.347945,1.242462 1.684927,2.746487 0.673972,-2.844573 2.230537,-4.136073 1.556554,-1.307854 4.236394,-1.307854 3.097067,0 4.942478,2.321438 1.845402,2.305086 1.845402,6.032463 z M 8.9130583,53.368241 h 6.7557767 q 0.09629,-1.029937 0.09629,-2.550314 0,-4.642877 -3.706853,-4.642877 -3.2575424,0 -3.2575424,4.266866 0,1.634815 0.1123307,2.926325 z m 9.2430587,0 h 8.970262 q 0.160475,-1.683864 0.160475,-2.58301 0,-3.073451 -1.123294,-4.479389 -1.139336,-1.422291 -3.610566,-1.422291 -2.294722,0 -3.385914,1.356891 -1.091191,1.340548 -1.091191,4.495741 z M 6.1690237,34.731339 q 0,-0.80106 0.5616516,-1.356892 0.545591,-0.572192 1.3158522,-0.572192 0.7863029,0 1.3479453,0.572192 0.545591,0.555832 0.545591,1.356892 0,0.784717 -0.545591,1.3569 -0.5616424,0.555831 -1.3479453,0.555831 -0.786303,0 -1.3319034,-0.555831 -0.5456004,-0.55584 -0.5456004,-1.3569 z M 29.854373,36.431546 H 15.235575 v 2.403189 H 12.668056 V 33.3254 H 29.854373 Z M 15.0751,27.276585 v 2.02717 h -2.407044 v -2.02717 H 9.0735329 L 7.9021041,24.170431 H 12.668056 V 19.364079 H 15.0751 v 4.806352 h 8.536993 q 2.166341,0 3.081026,-0.73566 0.914675,-0.752023 0.914675,-2.403181 0,-1.193414 -0.593745,-2.468573 l 2.679849,-0.457744 q 0.481414,1.929074 0.481414,4.23417 0,2.076217 -1.508419,3.514852 -1.524462,1.42229 -3.835227,1.42229 z"
       id="text28"
       aria-label="a Bit"
       inkscape:label="a Bit" />
    <path
       style="font-size:35.2777px;font-family:'Trebuchet MS';-inkscape-font-specification:'Trebuchet MS';fill:#000000;stroke-width:0.419186"
       d="m 66.839293,45.684375 q -3.76678,0 -6.075451,-2.057998 -2.32386,-2.073475 -2.32386,-5.446744 0,-3.558948 2.232727,-5.524106 2.21754,-1.965158 6.166584,-1.965158 3.933854,0 6.212148,2.011583 2.263106,2.011572 2.263106,5.477681 0,3.543479 -2.293483,5.524105 -2.293483,1.980637 -6.181771,1.980637 z m 0,-3.09474 q 6.121017,0 6.121017,-4.410002 0,-2.057998 -1.640371,-3.218527 -1.640373,-1.175997 -4.480646,-1.175997 -6.045074,0 -6.045074,4.394524 0,2.011583 1.609994,3.218526 1.609995,1.191476 4.43508,1.191476 z M 54.658012,18.636361 q -0.303772,0.897478 -0.303772,1.671161 0,1.346209 1.00245,2.228209 1.002449,0.866532 2.5365,0.866532 0.410093,0 0.850564,-0.07734 v -3.373267 h 2.430181 v 3.373263 h 13.836841 v 2.939999 H 61.173935 v 2.413897 h -2.430181 v -2.413897 q -3.11367,0 -4.890738,-1.562844 -1.77707,-1.562833 -1.77707,-4.131473 0,-1.284315 0.455659,-2.754319 z"
       id="text34"
       aria-label="of"
       inkscape:export-filename="abitofs.svg"
       inkscape:export-xdpi="25.4"
       inkscape:export-ydpi="25.4" />
  </g>
</svg>
